# xmcd
#
# Track frame offsets: 
#        150
#        14695
#        28719
#        40000
#        49127
#        62097
#        73547
#        83825
#        94525
#        104770
#        115200
#        125290
#
# Disc length: 1869 seconds
#
# Revision: 5
# Processed by: cddbd v1.5.2PL0 Copyright (c) Steve Scherf et al.
# Submitted via: ExactAudioCopyFreeDBPlugin 1.0
#
DISCID=9e074b0c
DTITLE=Various Artist - Hairspray:  Original Motion Picture Soundtrac
DTITLE=k
DYEAR=1988
DGENRE=Rhythm and Blues
TTITLE0=Rachel Sweet - Hairspray
TTITLE1=The Ray Bryant Combo - The Madison Time
TTITLE2=The Ikettes - I'm Blue (The Gong-Gong Song)
TTITLE3=Jan Bradley - Mama Didn't Lie
TTITLE4=Gene Pitney - Town Without Pity
TTITLE5=Gene and Wendell - The Roach (Dance)
TTITLE6=The Flares - Foot Stompin'
TTITLE7=The Five Du-Tones - Shake A Tail Feather
TTITLE8=Jerry Dallman and The Knightcaps - The Bug
TTITLE9=Barbara Lynn - You'll Lose a Good Thing
TTITLE10=Little Peggy March - I Wish I Were a Princess
TTITLE11=Toussaint McCall - Nothing Takes the Place of You
EXTD=YEAR: 1988
EXTT0=
EXTT1=
EXTT2=
EXTT3=
EXTT4=
EXTT5=
EXTT6=
EXTT7=
EXTT8=
EXTT9=
EXTT10=
EXTT11=
PLAYORDER=
